<?xml version="1.0" standalone="no"?>
<!DOCTYPE svg PUBLIC "-//W3C//DTD SVG 20010904//EN"
 "http://www.w3.org/TR/2001/REC-SVG-20010904/DTD/svg10.dtd">
<svg version="1.0" xmlns="http://www.w3.org/2000/svg"
 width="178.000000pt" height="178.000000pt" viewBox="0 0 178.000000 178.000000"
 preserveAspectRatio="xMidYMid meet">
<metadata>
Created by potrace 1.11, written by Peter Selinger 2001-2013
</metadata>
<g transform="translate(0.000000,178.000000) scale(0.100000,-0.100000)"
fill="#000000" stroke="none">
<path d="M377 1464 c-1 -2 -16 -5 -32 -8 -17 -3 -39 -8 -50 -10 -21 -4 -100
-33 -154 -57 l-33 -14 6 -220 c3 -121 9 -314 12 -430 4 -115 7 -239 8 -275 l1
-65 142 -3 141 -3 -4 143 -4 143 81 -1 c132 -2 243 42 328 128 160 162 153
400 -16 554 -46 42 -139 88 -216 107 -47 13 -200 20 -210 11z m207 -268 c80
-60 91 -158 28 -230 -25 -28 -92 -56 -135 -56 -71 0 -72 2 -75 160 -2 137 -1
141 21 150 41 18 122 6 161 -24z"/>
<path d="M960 915 l0 -536 142 3 142 3 -3 100 c-1 55 -4 139 -6 188 l-4 87
176 0 175 0 -7 93 c-4 50 -8 104 -9 120 -6 74 12 67 -174 67 l-168 0 -1 65 -1
65 224 0 c251 0 226 -8 226 75 0 19 -1 73 -1 120 l-1 85 -355 0 -355 0 0 -535z"/>
</g>
</svg>
